# xmcd CD database file
#
# Track frame offsets:
#	150
#	8421
#	21556
#	35007
#	50127
#	63620
#	88258
#	104982
#	124447
#	138159
#	158672
#	175044
#
# Disc length: 2382 seconds
#
# Revision: 2
# Processed by: cddbd v1.4b41PL1 Copyright (c) Steve Scherf et al.
# Submitted via: Feurio! 1.60 - http://www.feurio.com
#
DISCID=97094c0c,ac094c0c
DTITLE=The Blues Brothers - Briefcase full of blues
DYEAR=1900
DGENRE=
TTITLE0=The Blues Brothers  - The Blues Brothers 
TTITLE1=The Blues Brothers  - The Blues Brothers - Track 02
TTITLE2=The Blues Brothers  - The Blues Brothers - Track 03
TTITLE3=The Blues Brothers  - The Blues Brothers - Track 04
TTITLE4=The Blues Brothers  - The Blues Brothers - Track 05
TTITLE5=The Blues Brothers  - The Blues Brothers - Track 06
TTITLE6=The Blues Brothers  - The Blues Brothers - Track 07
TTITLE7=The Blues Brothers  - The Blues Brothers - Track 08
TTITLE8=The Blues Brothers  - The Blues Brothers - Track 09
TTITLE9=10
TTITLE10=11
TTITLE11=12
EXTD=
EXTT0=
EXTT1=
EXTT2=
EXTT3=
EXTT4=
EXTT5=
EXTT6=
EXTT7=
EXTT8=
EXTT9=
EXTT10=
EXTT11=
PLAYORDER=
